<svg width="206" height="296" viewBox="0 0 206 296" fill="none" xmlns="http://www.w3.org/2000/svg">
<g filter="url(#filter0_d)">
<path d="M103 45C105.625 45 107.688 45.9375 109.188 47.8125C111.062 49.3125 112 51.375 112 54C112 56.625 111.062 58.875 109.188 60.75C107.688 62.25 105.625 63 103 63C93.25 63 84.8125 66.5625 77.6875 73.6875C70.5625 80.8125 67 89.25 67 99C67 101.625 66.0625 103.875 64.1875 105.75C62.6875 107.25 60.625 108 58 108C55.375 108 53.125 107.25 51.25 105.75C49.75 103.875 49 101.625 49 99C49 84 54.25 71.25 64.75 60.75C75.25 50.25 88 45 103 45ZM58 258.188V234H148V258.188C148 260.062 147.438 261.75 146.312 263.25L132.812 284.062C130.938 286.688 128.312 288 124.938 288H81.0625C77.6875 288 75.0625 286.688 73.1875 284.062L59.6875 263.25C58.5625 261.75 58 260.062 58 258.188ZM103 0C130.375 0 153.625 9.75 172.75 29.25C192.25 48.375 202 71.625 202 99C202 123.75 193.75 145.5 177.25 164.25C172 170.25 166.375 178.312 160.375 188.438C154.75 198.188 150.625 207.375 148 216H121C121 213.375 121.375 210.75 122.125 208.125C129.25 185.25 140.875 164.625 157 146.25C169 132.75 175 117 175 99C175 79.125 167.875 62.25 153.625 48.375C139.75 34.125 122.875 27 103 27C83.5 27 66.625 33.9375 52.375 47.8125C38.125 61.6875 31 78.75 31 99C31 117 37 132.75 49 146.25C65.125 164.625 76.75 185.25 83.875 208.125C84.625 210.75 85 213.375 85 216H58C56.125 210 53.3125 203.625 49.5625 196.875C46.1875 189.75 42.625 183.562 38.875 178.312C35.125 172.688 31.75 168 28.75 164.25C12.25 145.5 4 123.75 4 99C4 72.375 13.375 49.3125 32.125 29.8125C51.25 9.9375 74.875 0 103 0Z" fill="#FFF7EB"/>
</g>
<defs>
<filter id="filter0_d" x="0" y="0" width="206" height="296" filterUnits="userSpaceOnUse" color-interpolation-filters="sRGB">
<feFlood flood-opacity="0" result="BackgroundImageFix"/>
<feColorMatrix in="SourceAlpha" type="matrix" values="0 0 0 0 0 0 0 0 0 0 0 0 0 0 0 0 0 0 127 0"/>
<feOffset dy="4"/>
<feGaussianBlur stdDeviation="2"/>
<feColorMatrix type="matrix" values="0 0 0 0 0 0 0 0 0 0 0 0 0 0 0 0 0 0 0.25 0"/>
<feBlend mode="normal" in2="BackgroundImageFix" result="effect1_dropShadow"/>
<feBlend mode="normal" in="SourceGraphic" in2="effect1_dropShadow" result="shape"/>
</filter>
</defs>
</svg>
